<svg width="218.53" height="212.84" xmlns="http://www.w3.org/2000/svg" xmlns:svg="http://www.w3.org/2000/svg" data-name="Layer 1">
  <defs>
    <style>.cls-1{fill:#377431;}.cls-2{fill:#fff;}.cls-3{font-size:49px;fill:#434345;font-family:MyriadPro-Bold,
    Myriad Pro;font-weight:700;letter-spacing:-0.03em;}</style>
  </defs>
  <g class="layer">
    <title>Layer 1</title>
    <g id="svg_4">
      <rect class="cls-1" height="212.84" id="svg_1" rx="25.35" width="218.53" x="0" y="0"/>
      <path class="cls-2" d="m136.66,97.33c-0.81,0.15 -1.52,0.69 -2.34,0.78a4.67,4.67 0 0 1 -1.12,0a4.73,4.73 0 0 0 -2.93,0.44a2.1,2.1 0 0 0 -1,2.56a6.7,6.7 0 0 1 -2.48,1.15a2.23,2.23 0 0 1 -2.36,-1.08c-0.59,-1.27 0.58,-2.63 1.66,-3.52s2.29,-2.18 1.81,-3.49c-0.23,-0.63 -0.84,-1.31 -0.45,-1.86a5.08,5.08 0 0 0 3.09,-0.6c0.87,-0.62 1.17,-2.12 0.29,-2.72c2.4,-0.34 3,-0.91 4,-2.84c0.38,-0.69 0.43,-1.38 0.8,-1.59a46.63,46.63 0 0 0 -49.82,-8.34c0.08,0.58 -0.65,1.4 -1.08,2a2.77,2.77 0 0 0 1.1,3.71a5.36,5.36 0 0 0 4.2,0.28c1.39,-0.39 2.69,-1.06 4.08,-1.46a22.56,22.56 0 0 1 5.38,-0.64a4.62,4.62 0 0 1 1.78,0.17a6.64,6.64 0 0 1 2.19,1.91a2.47,2.47 0 0 0 2.61,0.87a2.41,2.41 0 0 1 -1.46,3.13a3.35,3.35 0 0 1 -3.5,-1.13c-0.32,-0.38 -0.58,-0.82 -0.94,-1.17c-1.46,-1.4 -3.94,-0.69 -5.53,0.55s-2.89,3 -4.79,3.68a10,10 0 0 0 -1.94,0.72a1.51,1.51 0 0 0 -0.74,1.75c0.3,0.68 1.19,0.81 1.94,0.85c1.9,0.1 4.13,0.06 5.29,-1.46a11.28,11.28 0 0 1 1.29,-1.94c1.08,-0.93 2.79,-0.4 3.94,0.45s2.15,2 3.54,2.36a15.56,15.56 0 0 1 1.83,0.34a2.45,2.45 0 0 1 -1.18,4.72c-1.07,-0.16 -1.93,-1 -3,-1.26c-3.43,-0.87 -5.69,4.38 -9.22,4.46a13.71,13.71 0 0 0 -1.57,0c-1.73,0.22 -2.59,2.18 -3,3.88s-0.81,3.66 -2.36,4.45a1.68,1.68 0 0 1 -1.07,0.2a3,3 0 0 1 -0.89,-0.44a7.76,7.76 0 0 0 -8,0.05c-1.37,0.87 -2.51,2.52 -2,4.06c0.66,1.93 3.2,2.21 5,3.11s2.95,2.35 4.47,3.48s3.68,1.83 5.26,0.8c0.62,-0.4 1.16,-1 1.89,-1a3.13,3.13 0 0 1 1.25,0.53a12.34,12.34 0 0 0 3,0.73c5,1.15 7.62,7.07 12.41,9c1.46,0.59 3.14,0.83 4.29,1.92s1.1,3.51 -0.45,3.81c-0.88,2.19 -0.38,5.11 -2.24,6.54a14.4,14.4 0 0 1 -1.37,0.8c-2.94,1.83 -3.07,6.24 -5.61,8.6c-0.92,0.86 -2.12,1.4 -3,2.29a5.24,5.24 0 0 0 -0.15,7c0.73,0.8 1.82,1.58 1.67,2.66c-1.44,1.43 -3.85,0.26 -5.49,-1a6.4,6.4 0 0 1 -1.23,-1.09a5.42,5.42 0 0 1 -0.82,-1.65a29.41,29.41 0 0 1 -1.5,-11.2c0.14,-3 0.69,-6.26 -0.83,-8.86c-1.16,-2 -3.31,-3.16 -4.93,-4.79s-2.69,-4.39 -1.24,-6.17c0.46,-0.55 1.12,-0.95 1.42,-1.6c0.68,-1.46 -0.78,-3 -2.08,-3.91a33,33 0 0 0 -8,-4.76a11.12,11.12 0 0 1 -3.78,-1.72a9,9 0 0 0 -1.76,-1.58a8.8,8.8 0 0 0 -1.32,-0.42c-1.76,-0.6 -2.85,-2.39 -3.35,-4.18s-0.56,-3.68 -1.06,-5.47c-0.55,-2 -1.38,-1.56 -2.31,-1a46.25,46.25 0 0 0 -3.19,16.93a46.68,46.68 0 0 0 83.85,28.26c-0.47,-2.19 -2.12,-4.2 -2.69,-6.45a22.81,22.81 0 0 1 -0.28,-5.23a37.75,37.75 0 0 0 -1.71,-9a6.88,6.88 0 0 0 -1,-2.41a5.3,5.3 0 0 0 -3.1,-1.67c-2.87,-0.63 -5.86,-0.17 -8.78,-0.48s-6.09,-1.74 -7,-4.54c-0.6,-1.88 0,-3.91 0.57,-5.79a6,6 0 0 1 0.95,-2a6.74,6.74 0 0 1 2,-1.4c2.33,-1.24 4.39,-3.72 6.76,-4.67c1.29,-0.52 2.17,0.06 3.45,0c1,-0.06 1.61,-1.08 2.81,-0.29c0.76,0.5 1.27,1.31 2,1.81a6,6 0 0 0 2.4,0.77q5.79,1 11.64,1.49c-0.3,-1.16 -0.65,-2.29 -1,-3.41c-1,-0.82 -2,-1.61 -3.07,-2.33s-2.37,-1.53 -3.57,-2.27l-1.69,-1a5.19,5.19 0 0 0 -3.54,-1.17z" id="svg_2"/>
      <path class="cls-2" d="m184.21,41.81s-72.42,-9.26 -118.73,20.63s-19.39,93.06 -19.39,93.06c-15.75,16.89 -29.45,54.76 -29.45,54.76a30,30 0 0 0 14.73,4.63c6.32,-24.42 24.42,-45.08 24.42,-45.08c80.42,39.55 109.06,-16.81 109.06,-16.81c24.42,-32.03 19.36,-111.19 19.36,-111.19zm-79.92,128a50.7,50.7 0 1 1 50.7,-50.7a50.75,50.75 0 0 1 -50.7,50.67l0,0.03z" id="svg_3"/>
    </g>
  </g>
</svg>
