<svg width="218.53" height="212.84" xmlns="http://www.w3.org/2000/svg" xmlns:svg="http://www.w3.org/2000/svg" data-name="Layer 1">
  <defs>
    <style>.cls-1{fill:#8ebf3e;}.cls-2{fill:#fff;}.cls-3{font-size:49px;fill:#434345;font-family:MyriadPro-Bold,
    Myriad Pro;font-weight:700;letter-spacing:-0.03em;}.cls-4{letter-spacing:-0.04em;}</style>
  </defs>
  <g class="layer">
    <title>Layer 1</title>
    <g id="svg_18">
      <rect class="cls-1" height="212.84" id="svg_1" rx="25.35" width="218.53" x="0" y="0"/>
      <path class="cls-2" d="m98.13,106.4s-10.1,-7.29 -13.75,-13.75c0,0 -3.09,-5.89 -1.4,-7.29s15.71,6.17 19.64,16.83c0,0 7,-14.59 -11.23,-27.78c0,0 -11.22,-7.85 -24.69,-5.33c0.03,0 -2.77,38.44 31.43,37.32z" id="svg_2"/>
      <path class="cls-2" d="m116.13,102.19c3.93,-10.66 18,-18.24 19.64,-16.83s-1.4,7.29 -1.4,7.29c-3.65,6.46 -13.75,13.75 -13.75,13.75c34.23,1.12 31.43,-37.32 31.43,-37.32c-13.47,-2.52 -24.69,5.33 -24.69,5.33c-18.23,13.19 -11.23,27.78 -11.23,27.78z" id="svg_3"/>
      <path class="cls-2" d="m105.73,72.45s-0.84,1.68 -1.76,-9.54c-0.88,-10.81 5.48,-11.34 5.94,-11.36s6.83,0.55 5.94,11.36c-0.92,11.22 -1.76,9.54 -1.76,9.54s-1.81,3.65 1.76,3.93c0,0 24.58,-26.05 -5.9,-49.61l0,0l0,0l0,0l0,0c-30.47,23.56 -5.9,49.61 -5.9,49.61c3.49,-0.28 1.68,-3.93 1.68,-3.93z" id="svg_4"/>
      <path class="cls-2" d="m171.55,120.72a47.85,47.85 0 0 0 -9.16,-1.51c-0.77,-0.07 -1.53,-0.1 -2.3,-0.15s-1.6,0 -2.38,0c-1.59,0 -3.15,0.17 -4.69,0.35a89.8,89.8 0 0 0 -9.09,1.54l-2.22,0.49l-1.1,0.25l-1,0.2c-1.37,0.22 -2.84,0.4 -4.3,0.56s-2.94,0.3 -4.31,0.32a26.45,26.45 0 0 1 -4.12,-0.18a12.56,12.56 0 0 1 -3.75,-1.04a42.21,42.21 0 0 0 -4.43,-1.74a21.21,21.21 0 0 0 -2.44,-0.57c-0.79,-0.15 -1.59,-0.27 -2.39,-0.35a29.26,29.26 0 0 0 -4.49,-0.13a29.3,29.3 0 0 0 -4.49,0.13c-0.8,0.08 -1.6,0.2 -2.39,0.35a21.21,21.21 0 0 0 -2.44,0.57a42.21,42.21 0 0 0 -4.43,1.74a12.56,12.56 0 0 1 -3.71,1.05a26.45,26.45 0 0 1 -4.12,0.18c-1.36,0 -2.84,-0.18 -4.31,-0.32s-2.93,-0.34 -4.3,-0.56l-1,-0.2l-1.1,-0.25l-2.22,-0.49a89.8,89.8 0 0 0 -9.09,-1.57c-1.54,-0.18 -3.1,-0.31 -4.68,-0.35c-0.79,0 -1.6,0 -2.39,0s-1.53,0.08 -2.3,0.15a47.75,47.75 0 0 0 -9.15,1.51a23.81,23.81 0 0 0 -8.42,4l0.43,0.77a36.6,36.6 0 0 1 8.55,-1.94c1.45,-0.17 2.91,-0.27 4.37,-0.37s2.93,-0.11 4.4,-0.14c0.73,0 1.47,0 2.21,0s1.41,0 2.13,0.06c1.42,0.09 2.86,0.26 4.29,0.47c2.88,0.44 5.76,1.09 8.66,1.76l2.18,0.52l1.1,0.27c0.35,0.09 0.82,0.19 1.2,0.26c1.59,0.31 3.11,0.5 4.64,0.66s3.05,0.33 4.69,0.36a26.29,26.29 0 0 0 4.89,-0.25a17.29,17.29 0 0 0 4.92,-1.46c1.37,-0.64 2.68,-1.28 3.91,-1.71a18.58,18.58 0 0 1 1.94,-0.52c0.68,-0.15 1.37,-0.27 2.06,-0.37a24.79,24.79 0 0 1 7.94,0c0.69,0.1 1.38,0.22 2.06,0.37a18.58,18.58 0 0 1 1.94,0.52c1.23,0.43 2.54,1.07 3.91,1.71a17.29,17.29 0 0 0 4.92,1.46a26.29,26.29 0 0 0 4.89,0.25c1.64,0 3.16,-0.2 4.69,-0.36s3.05,-0.35 4.64,-0.66c0.38,-0.07 0.85,-0.17 1.2,-0.26l1.1,-0.27l2.18,-0.52c2.9,-0.67 5.78,-1.32 8.66,-1.76c1.43,-0.21 2.87,-0.38 4.29,-0.47c0.72,0 1.41,-0.06 2.13,-0.06s1.48,0 2.21,0c1.48,0 2.94,0.08 4.41,0.14s2.91,0.2 4.36,0.37a36.6,36.6 0 0 1 8.55,1.94l0.43,-0.77a23.84,23.84 0 0 0 -8.37,-3.98z" id="svg_5"/>
      <path class="cls-2" d="m118.13,136.68a6.15,6.15 0 1 0 6.15,6.14a6.14,6.14 0 0 0 -6.15,-6.14z" id="svg_6"/>
      <path class="cls-2" d="m101.39,136.68a6.15,6.15 0 1 0 6.15,6.14a6.14,6.14 0 0 0 -6.15,-6.14z" id="svg_7"/>
      <path class="cls-2" d="m101.39,152.63a6.15,6.15 0 1 0 6.15,6.15a6.15,6.15 0 0 0 -6.15,-6.15z" id="svg_8"/>
      <path class="cls-2" d="m85.32,152.63a6.15,6.15 0 1 0 6.15,6.15a6.15,6.15 0 0 0 -6.15,-6.15z" id="svg_9"/>
      <path class="cls-2" d="m134.13,152.63a6.15,6.15 0 1 0 6.15,6.15a6.15,6.15 0 0 0 -6.15,-6.15z" id="svg_10"/>
      <path class="cls-2" d="m118.13,152.63a6.15,6.15 0 1 0 6.15,6.15a6.15,6.15 0 0 0 -6.15,-6.15z" id="svg_11"/>
      <path class="cls-2" d="m118.13,185.46a6.15,6.15 0 1 0 6.15,6.15a6.14,6.14 0 0 0 -6.15,-6.15z" id="svg_12"/>
      <path class="cls-2" d="m101.39,185.46a6.15,6.15 0 1 0 6.15,6.15a6.14,6.14 0 0 0 -6.15,-6.15z" id="svg_13"/>
      <circle class="cls-2" cx="101.39" cy="174.73" id="svg_14" r="6.14"/>
      <circle class="cls-2" cx="85.32" cy="174.73" id="svg_15" r="6.14"/>
      <circle class="cls-2" cx="134.15" cy="174.73" id="svg_16" r="6.14"/>
      <circle class="cls-2" cx="118.08" cy="174.73" id="svg_17" r="6.14"/>
    </g>
  </g>
</svg>
