<svg width="218.53" height="212.84" xmlns="http://www.w3.org/2000/svg" xmlns:svg="http://www.w3.org/2000/svg" data-name="Layer 1">
  <defs>
    <style>.cls-1{fill:#fdca3d;}.cls-2{font-size:49px;fill:#434345;font-family:MyriadPro-Bold, Myriad
    Pro;font-weight:700;letter-spacing:-0.03em;}.cls-3{fill:#fff;}</style>
  </defs>
  <g class="layer">
    <title>Layer 1</title>
    <g id="svg_3">
      <rect class="cls-1" height="212.84" id="svg_1" rx="25.35" width="218.53" x="0" y="0"/>
      <path class="cls-3" d="m191.95,44.27l-2,-23.23a7,7 0 0 0 -0.11,-0.78s0,-0.09 0,-0.14a6.55,6.55 0 0 0 -0.22,-0.79l0,-0.1l0,-0.07a7.34,7.34 0 0 0 -0.39,-0.86l0,-0.07a6.76,6.76 0 0 0 -0.46,-0.72a0.64,0.64 0 0 0 -0.1,-0.13a5.69,5.69 0 0 0 -0.6,-0.7l-0.12,-0.06a5.62,5.62 0 0 0 -0.64,-0.55l-0.12,-0.09a6.52,6.52 0 0 0 -0.78,-0.51l0,0a5.69,5.69 0 0 0 -0.83,-0.38l-0.11,0a7.11,7.11 0 0 0 -0.93,-0.27l0,0a6.86,6.86 0 0 0 -0.91,-0.12l-0.11,0l-26.31,-1.55a7,7 0 0 0 -0.83,14l10.17,0.6l-8.07,7.64a36.2,36.2 0 0 0 -4.4,-0.13l-64.63,0s-13.55,-1.91 -17.81,10.86l0,74.2s1.94,13.16 16.26,13.94s27.87,0 27.87,0l-14.33,-16.26s-9.67,0.39 -13.54,-6.58c0,0 -3.1,-5 0,-12.39l30.19,31s4.64,8.9 -9.68,10.84l-48.46,10.8s-12.39,2.71 -8.9,-9.67l17.42,-56.9l-1.19,-26.28s-6.58,-2.32 -12,11.61l-25.54,81.49s-7.35,22.2 17,19.88l37.31,-8.61l2.14,10.86l-12.76,2.93a7,7 0 0 0 1.59,13.84a7.07,7.07 0 0 0 1.57,-0.18l12.36,-2.82l1.09,5.5a7,7 0 1 0 13.73,-2.72l-1.17,-5.91l11.16,-2.55a7,7 0 0 0 -3.13,-13.65l-10.74,2.46l-2.15,-10.88l39.61,-9.14s12.77,-4.64 7,-17l10.8,0s15.09,0.77 15.48,-15.48l0,-75.47l6.62,-6.26l0.72,8.71a7,7 0 0 0 7,6.42a5.83,5.83 0 0 0 0.59,0a7,7 0 0 0 6.39,-7.58zm-35.23,20.7l0,34.45c0.39,19.35 -13.54,18.58 -13.54,18.58l-13.23,0l-42.19,-44.12l0,-9.29c0,-14.71 11.86,-13.94 11.86,-13.94l38.46,0c19.77,-0.77 18.61,14.32 18.61,14.32l0.03,0z" id="svg_2"/>
    </g>
  </g>
</svg>
