<svg width="218.53" height="212.84" xmlns="http://www.w3.org/2000/svg" xmlns:svg="http://www.w3.org/2000/svg" data-name="Layer 1">
  <defs>
    <style>.cls-1{fill:#ec7427;}.cls-2{fill:#fff;}.cls-3{font-size:49px;fill:#434345;font-family:MyriadPro-Bold,
    Myriad Pro;font-weight:700;letter-spacing:-0.03em;}</style>
  </defs>
  <g class="layer">
    <title>Layer 1</title>
    <g id="svg_8">
      <rect class="cls-1" height="212.84" id="svg_1" rx="25.35" width="218.53" x="0" y="0"/>
      <path class="cls-2" d="m148.1,66.92l-1.61,0s-8.85,0.32 -12.64,7s-1.89,0.63 -1.89,0.63s-0.95,-2.52 -2.21,-2.84s-9.48,-6.95 -19.58,-2.53c0,0 -7.9,-9.15 -19.9,-2.21c0,0 -6,3.72 -6.63,9c0,0 -32.21,-3.27 -32.52,11.57l118.1,0s-4.06,-20.62 -21.12,-20.62z" id="svg_2"/>
      <path class="cls-2" d="m114.07,59.68s-13.28,-10.42 -17.41,-20.21c0,0 13.06,7.58 17.41,16.42c0,0 10.35,-33.16 -34.81,-33.79c0,0 -2.06,38.82 34.81,37.58z" id="svg_3"/>
      <path class="cls-2" d="m131.37,40.92a25.22,25.22 0 0 1 -10.42,12.45l0.31,7.9s20.23,-0.64 19.23,-27.17c0,0 -14.3,-5.26 -22.43,5.37l1.58,9.47s6.67,-6.6 11.73,-8.02z" id="svg_4"/>
      <path class="cls-2" d="m70.74,143.55l77.68,0c8.52,-4.34 17.17,-16.38 22.58,-25a31.46,31.46 0 0 0 5.49,-16.73l0,-8.35l-134.81,0s0,13.58 6.32,25c6.81,12.39 22.74,25.08 22.74,25.08z" id="svg_5"/>
      <path class="cls-2" d="m79.24,161.05c-8.55,-5.69 -20.19,-19.58 -20.19,-19.58c-5.62,-6.31 -10.1,1.26 -4.74,8.53s2.92,8.21 2.92,8.21c-7.69,-3.4 -12.11,-7.83 -14.65,-11.85c-3.59,-5.7 -6.29,-14.2 -7.4,-15.15c-5.9,-5 -6.13,4.57 -6.13,4.57c9.16,28.11 27.16,36.95 27.16,36.95c9.47,5.69 8.21,17.05 8.21,17.05l20.53,-2s2.84,-21.05 -5.71,-26.73z" id="svg_6"/>
      <path class="cls-2" d="m184.37,131.21c-1.11,1 -3.81,9.45 -7.4,15.15c-2.54,4 -7,8.45 -14.65,11.85c0,0 -2.46,-0.95 2.91,-8.21s0.89,-14.84 -4.73,-8.53c0,0 -11.65,13.89 -20.19,19.58s-5.71,26.73 -5.71,26.73l20.53,2s-1.27,-11.36 8.21,-17.05c0,0 18,-8.84 27.16,-36.95c-0.01,0 -0.23,-9.61 -6.13,-4.57z" id="svg_7"/>
    </g>
  </g>
</svg>
