<svg width="218.53" height="212.84" xmlns="http://www.w3.org/2000/svg" xmlns:svg="http://www.w3.org/2000/svg" data-name="Layer 1">
  <defs>
    <style>.cls-1{fill:#1275ba;}.cls-2{fill:#fff;}.cls-3{font-size:49px;fill:#434345;font-family:MyriadPro-Bold,
    Myriad Pro;font-weight:700;letter-spacing:-0.03em;}</style>
  </defs>
  <g class="layer">
    <title>Layer 1</title>
    <g id="svg_5">
      <rect class="cls-1" height="212.84" id="svg_1" rx="25.35" width="218.53" x="0" y="0"/>
      <path class="cls-2" d="m154.82,129.14s0,22.42 -0.32,32.35s-4.49,10.9 -4.49,10.9l20.18,17.21l21.79,-25.54l-37.16,-34.92z" id="svg_2"/>
      <path class="cls-2" d="m116.06,81.09l0.32,3.52s4.8,8.52 15,8.75s-13.24,-34.38 -28.24,-39.18c0,0 -8.55,1 -2.14,8.65s14.73,14.73 15.06,18.26z" id="svg_3"/>
      <path class="cls-2" d="m152.57,160.53l0,-35.24s2.57,-0.64 5.45,2.57s8.33,8.65 15.38,2.56s-14.74,-22.1 -14.74,-22.1s-9,-9.29 -32.67,-12.82c0,0 -9,-3.91 -14.1,-12.2s-48.05,-56.67 -48.05,-56.67l-32.36,32l19.66,19.63a8.77,8.77 0 0 0 -2,4.49a9.09,9.09 0 0 0 2.16,7.15a8.45,8.45 0 0 0 6.33,2.91l2.14,0a9.08,9.08 0 0 0 -0.86,4.25a8.94,8.94 0 0 0 8.86,8.49l1,0a8.93,8.93 0 0 0 7.25,14l0.52,0a8.91,8.91 0 0 0 7.78,13.17l12,0l1.82,2.16l0,13.46s-0.32,5.77 5.12,6.73s7.69,-5.77 7.69,-5.77s1.92,0 1.6,2.88s-1.92,9.93 5.77,10.9s6.4,-11.54 6.4,-11.54l1.61,1s-1.93,13.14 3.52,14.1s6.41,-1.28 6.73,-8.65l0,-3.2l2.56,0l0,9s0,6.4 6.09,6.4s7.34,-5.17 7.34,-9.66zm-53.19,-29.79l0,0l0,0l-15.05,0a6.85,6.85 0 0 1 -6.79,-6.18a6.93,6.93 0 0 1 1.73,-5.29l1.52,-1.7l-4.76,0a6.88,6.88 0 0 1 -4.27,-12.22l2.24,-1.82l-6.25,0a6.87,6.87 0 0 1 -6.82,-6.53a7,7 0 0 1 1.44,-4.57l1.27,-1.64l-6,0a6.45,6.45 0 0 1 -4.8,-2.21a7.07,7.07 0 0 1 -1.67,-5.55a6.77,6.77 0 0 1 4.3,-5.44a7.4,7.4 0 0 1 2.17,-0.33l15.34,0a7.58,7.58 0 0 1 7.55,7.55a7.48,7.48 0 0 1 -1.67,4.7l4,0a7.54,7.54 0 0 1 4.61,13.5l3.67,0a7.52,7.52 0 0 1 5.52,12.66l2.79,0a7.55,7.55 0 0 1 0,15.09l-0.07,-0.02z" id="svg_4"/>
    </g>
  </g>
</svg>
